<?xml version="1.0" encoding="utf-8" standalone="yes"?>
<!DOCTYPE svg PUBLIC "-//W3C//DTD SVG 1.1//EN" "http://www.w3.org/Graphics/SVG/1.1/DTD/svg11.dtd">
<svg style="fill:none;stroke:none;fill-rule:evenodd;clip-rule:evenodd;stroke-linecap:round;stroke-linejoin:round;stroke-miterlimit:1.5;" version="1.1" xmlns="http://www.w3.org/2000/svg" xmlns:xlink="http://www.w3.org/1999/xlink" width="972" height="858" viewBox="0 0 972 858"><style class="text-font-style fontImports" data-font-family="Roboto">@import url(https://fonts.googleapis.com/css2?family=Roboto:wght@400;700&amp;amp;display=block);</style><g id="items" style="isolation: isolate"><g id="blend" style="mix-blend-mode: normal"><g id="g-root-cp_0b_g-0b_1qbc8ncq5o8ap-fill" data-item-order="-704077" transform="translate(158, 320)"></g><g id="g-root-cp_0b_g-0b_1qbc8ncq5o8ap-stroke" data-item-order="-704077" transform="translate(158, 320)"><g id="cp_0b_g-0b_1qbc8ncq5o8ap-stroke" fill="none" stroke-linecap="round" stroke-linejoin="round" stroke-miterlimit="4" stroke="#000000" stroke-width="2" stroke-dasharray="5.0, 7.0" stroke-opacity="1"><g><path d="M 646 10L 10 10"></path></g></g></g><g id="g-root-cp_0a_g-0a_1d0i7d4q5o6pu-fill" data-item-order="-704074" transform="translate(122, 188)"><g id="cp_0a_g-0a_1d0i7d4q5o6pu-fill-merged" stroke="none" fill="#a3a3a3" fill-opacity="1"><g><path d="M274 130L334 34L344 42.5L364 10L418 82L430 70L466 130 H274 M312 118L331 89L354 94L339 76L365 34L418 106L428 94L443 118 H312 M10 106 H46 V130 H10L16.5 118L10 106 M718 106 H682 V130 H718L711.5 118L718 106"></path></g></g></g><g id="g-root-cp_0a_g-0a_1d0i7d4q5o6pu-stroke" data-item-order="-704074" transform="translate(122, 188)"><g id="cp_0a_g-0a_1d0i7d4q5o6pu-stroke" fill="none" stroke-linecap="round" stroke-linejoin="round" stroke-miterlimit="4" stroke="#ffffff" stroke-width="2" stroke-opacity="1"><g><path d="M 274 130L 334 34L 344 42.5L 364 10L 418 82L 430 70L 466 130L 274 130ZM 312 118L 331 89L 354 94L 339 76L 365 34L 418 106L 428 94L 443 118L 312 118ZM 46 106L 10 106L 16.5 118L 10 130L 46 130M 682 106L 718 106L 711.5 118L 718 130L 682 130"></path></g></g></g><g id="g-root-cp_0a_poles_qva408q5o83n-fill" data-item-order="-704059" transform="translate(158, 284)"></g><g id="g-root-cp_0a_poles_qva408q5o83n-stroke" data-item-order="-704059" transform="translate(158, 284)"><g id="cp_0a_poles_qva408q5o83n-stroke" fill="none" stroke-linecap="round" stroke-linejoin="round" stroke-miterlimit="4" stroke="#000000" stroke-width="2" stroke-opacity="1"><g><path d="M 10 34L 10 10L 10 46M 646 34L 646 10L 646 46"></path></g></g></g><g id="g-root-cp_1_line_1_4ot2h4q5o7bg-fill" data-item-order="-704037" transform="translate(290, 344)"></g><g id="g-root-cp_1_line_1_4ot2h4q5o7bg-stroke" data-item-order="-704037" transform="translate(290, 344)"><g id="cp_1_line_1_4ot2h4q5o7bg-stroke" fill="none" stroke-linecap="round" stroke-linejoin="round" stroke-miterlimit="4" stroke="#000000" stroke-width="2" stroke-opacity="1"><g><path d="M 10 10L 10 82"></path></g></g></g><g id="g-root-cp_1_g-1_1qegm2wq5o8p9-fill" data-item-order="-704030" transform="translate(386, 332)"><g id="cp_1_g-1_1qegm2wq5o8p9-fill-merged" stroke="none" fill="#4e88e7" fill-opacity="1"><g><path d="M22 82L10 10 H202L185 82 H22"></path></g></g></g><g id="g-root-cp_1_g-1_1qegm2wq5o8p9-stroke" data-item-order="-704030" transform="translate(386, 332)"><g id="cp_1_g-1_1qegm2wq5o8p9-stroke" fill="none" stroke-linecap="round" stroke-linejoin="round" stroke-miterlimit="4" stroke="#ffffff" stroke-width="2" stroke-opacity="1"><g><path d="M 22 82L 10 10L 202 10L 185 82L 22 82Z"></path></g></g></g><g id="g-root-cp_2_line_3_1d3mksoq5o74e-fill" data-item-order="-704013" transform="translate(662, 416)"></g><g id="g-root-cp_2_line_3_1d3mksoq5o74e-stroke" data-item-order="-704013" transform="translate(662, 416)"><g id="cp_2_line_3_1d3mksoq5o74e-stroke" fill="none" stroke-linecap="round" stroke-linejoin="round" stroke-miterlimit="4" stroke="#000000" stroke-width="2" stroke-opacity="1"><g><path d="M 10 10L 10 82"></path></g></g></g><g id="g-root-cp_2_g-2_18nt2o8q5o7wn-fill" data-item-order="-704006" transform="translate(398, 404)"><g id="cp_2_g-2_18nt2o8q5o7wn-fill-merged" stroke="none" fill="#969696" fill-opacity="1"><g><path d="M16.543 57.014L10 10 H173L157.5 82L145.83 59.32L142 82 H34L30 50.2L16.543 57.014"></path></g></g></g><g id="g-root-cp_2_g-2_18nt2o8q5o7wn-stroke" data-item-order="-704006" transform="translate(398, 404)"><g id="cp_2_g-2_18nt2o8q5o7wn-stroke" fill="none" stroke-linecap="round" stroke-linejoin="round" stroke-miterlimit="4" stroke="#ffffff" stroke-width="2" stroke-opacity="1"><g><path d="M 16.5429 57.01384L 10 10L 173 10L 157.5 82L 145.830002 59.319523L 142 82L 34 82L 30 50.200001L 16.5429 57.01384Z"></path></g></g></g><g id="g-root-cp_3_line_5_v2zg08q5pkw8-fill" data-item-order="-703989" transform="translate(290, 488)"></g><g id="g-root-cp_3_line_5_v2zg08q5pkw8-stroke" data-item-order="-703989" transform="translate(290, 488)"><g id="cp_3_line_5_v2zg08q5pkw8-stroke" fill="none" stroke-linecap="round" stroke-linejoin="round" stroke-miterlimit="4" stroke="#000000" stroke-width="2" stroke-opacity="1"><g><path d="M 10 10L 10 82"></path></g></g></g><g id="g-root-cp_3_g-3_hrixmwq5pmh5-fill" data-item-order="-703982" transform="translate(422, 476)"><g id="cp_3_g-3_hrixmwq5pmh5-fill-merged" stroke="none" fill="#de8431" fill-opacity="1"><g><path d="M16.5 65.2L10 10 H117.999L112.025 46L106 82 H29.5L29 68.2L16.5 65.2"></path></g></g></g><g id="g-root-cp_3_g-3_hrixmwq5pmh5-stroke" data-item-order="-703982" transform="translate(422, 476)"><g id="cp_3_g-3_hrixmwq5pmh5-stroke" fill="none" stroke-linecap="round" stroke-linejoin="round" stroke-miterlimit="4" stroke="#ffffff" stroke-width="2" stroke-opacity="1"><g><path d="M 16.5 65.200001L 10 10L 117.999496 10L 112.025406 46L 106 82L 29.499603 82L 28.999603 68.200001L 16.5 65.200001Z"></path></g></g></g><g id="g-root-cp_4_line_7_4gowcoq5pkwa-fill" data-item-order="-703965" transform="translate(662, 560)"></g><g id="g-root-cp_4_line_7_4gowcoq5pkwa-stroke" data-item-order="-703965" transform="translate(662, 560)"><g id="cp_4_line_7_4gowcoq5pkwa-stroke" fill="none" stroke-linecap="round" stroke-linejoin="round" stroke-miterlimit="4" stroke="#000000" stroke-width="2" stroke-opacity="1"><g><path d="M 10 10L 10 82"></path></g></g></g><g id="g-root-cp_4_g-4_ve88q5ploj-fill" data-item-order="-703958" transform="translate(441.58203125, 548)"><g id="cp_4_g-4_ve88q5ploj-fill-merged" stroke="none" fill="#3cc583" fill-opacity="1"><g><path d="M21 82 H78.5L80 65.2L84.5 53.8L86.5 10 H10L11 39.4L10 52L12 64.6L19.5 62.2L21 82"></path></g></g></g><g id="g-root-cp_4_g-4_ve88q5ploj-stroke" data-item-order="-703958" transform="translate(441.58203125, 548)"><g id="cp_4_g-4_ve88q5ploj-stroke" fill="none" stroke-linecap="round" stroke-linejoin="round" stroke-miterlimit="4" stroke="#ffffff" stroke-width="2" stroke-opacity="1"><g><path d="M 21 82L 78.5 82L 80 65.200001L 84.499603 53.800003L 86.499603 10L 10 10L 11 39.400002L 10 52L 12 64.600002L 19.5 62.200001L 21 82Z"></path></g></g></g><g id="g-root-cp_5_line_9_1lqixu0q5pn2c-fill" data-item-order="-703941" transform="translate(290, 632)"></g><g id="g-root-cp_5_line_9_1lqixu0q5pn2c-stroke" data-item-order="-703941" transform="translate(290, 632)"><g id="cp_5_line_9_1lqixu0q5pn2c-stroke" fill="none" stroke-linecap="round" stroke-linejoin="round" stroke-miterlimit="4" stroke="#000000" stroke-width="2" stroke-opacity="1"><g><path d="M 10 10L 10 82"></path></g></g></g><g id="g-root-cp_5_g-5_1cvieo8q5pkp9-fill" data-item-order="-703934" transform="translate(452.5, 620)"><g id="cp_5_g-5_1cvieo8q5pkp9-fill-merged" stroke="none" fill="#969696" fill-opacity="1"><g><path d="M47 82 H20.5L12.273 38.2L10 10 H67.5L64 51.4L56 43L47 82"></path></g></g></g><g id="g-root-cp_5_g-5_1cvieo8q5pkp9-stroke" data-item-order="-703934" transform="translate(452.5, 620)"><g id="cp_5_g-5_1cvieo8q5pkp9-stroke" fill="none" stroke-linecap="round" stroke-linejoin="round" stroke-miterlimit="4" stroke="#ffffff" stroke-width="2" stroke-opacity="1"><g><path d="M 47 82L 20.5 82L 12.273499 38.200001L 10 10L 67.5 10L 64 51.400002L 55.999603 43L 47 82Z"></path></g></g></g><g id="g-root-cp_6_line_11_18fowjsq5plhi-fill" data-item-order="-703917" transform="translate(662, 704)"></g><g id="g-root-cp_6_line_11_18fowjsq5plhi-stroke" data-item-order="-703917" transform="translate(662, 704)"><g id="cp_6_line_11_18fowjsq5plhi-stroke" fill="none" stroke-linecap="round" stroke-linejoin="round" stroke-miterlimit="4" stroke="#000000" stroke-width="2" stroke-opacity="1"><g><path d="M 10 10L 10 82"></path></g></g></g><g id="g-root-cp_6_g-6_zk1wawq5pma7-fill" data-item-order="-703910" transform="translate(463, 692)"><g id="cp_6_g-6_zk1wawq5pma7-fill-merged" stroke="none" fill="#e0cb15" fill-opacity="1"><g><path d="M10 10L15.5 58.6L18 63.4L19.25 70.3L23 82L36.5 10 H10"></path></g></g></g><g id="g-root-cp_6_g-6_zk1wawq5pma7-stroke" data-item-order="-703910" transform="translate(463, 692)"><g id="cp_6_g-6_zk1wawq5pma7-stroke" fill="none" stroke-linecap="round" stroke-linejoin="round" stroke-miterlimit="4" stroke="#ffffff" stroke-width="2" stroke-opacity="1"><g><path d="M 10 10L 15.5 58.600002L 18 63.400002L 19.2498 70.300003L 22.9996 82L 36.5 10L 10 10Z"></path></g></g></g><g id="g-root-he_qp1d54q5pkox-fill" data-item-order="-703899" transform="translate(362, 374)"></g><g id="g-root-he_qp1d54q5pkox-stroke" data-item-order="-703899" transform="translate(362, 374)"><g id="he_qp1d54q5pkox-stroke" fill="none" stroke-linecap="round" stroke-linejoin="round" stroke-miterlimit="4" stroke="#000000" stroke-width="2" stroke-opacity="1"><g><path d="M 41 10L 10 10"></path></g></g></g><g id="g-root-he_qp1d54q5pkoz-fill" data-item-order="-703897" transform="translate(551.5, 446)"></g><g id="g-root-he_qp1d54q5pkoz-stroke" data-item-order="-703897" transform="translate(551.5, 446)"><g id="he_qp1d54q5pkoz-stroke" fill="none" stroke-linecap="round" stroke-linejoin="round" stroke-miterlimit="4" stroke="#000000" stroke-width="2" stroke-opacity="1"><g><path d="M 10 10L 48.5 10"></path></g></g></g><g id="g-root-he_htecw8q5plhp-fill" data-item-order="-703895" transform="translate(362, 518)"></g><g id="g-root-he_htecw8q5plhp-stroke" data-item-order="-703895" transform="translate(362, 518)"><g id="he_htecw8q5plhp-stroke" fill="none" stroke-linecap="round" stroke-linejoin="round" stroke-miterlimit="4" stroke="#000000" stroke-width="2" stroke-opacity="1"><g><path d="M 75 10L 10 10"></path></g></g></g><g id="g-root-he_htecw8q5plhr-fill" data-item-order="-703893" transform="translate(516, 590)"></g><g id="g-root-he_htecw8q5plhr-stroke" data-item-order="-703893" transform="translate(516, 590)"><g id="he_htecw8q5plhr-stroke" fill="none" stroke-linecap="round" stroke-linejoin="round" stroke-miterlimit="4" stroke="#000000" stroke-width="2" stroke-opacity="1"><g><path d="M 10 10L 84 10"></path></g></g></g><g id="g-root-he_ddkursq5pma1-fill" data-item-order="-703891" transform="translate(362, 662)"></g><g id="g-root-he_ddkursq5pma1-stroke" data-item-order="-703891" transform="translate(362, 662)"><g id="he_ddkursq5pma1-stroke" fill="none" stroke-linecap="round" stroke-linejoin="round" stroke-miterlimit="4" stroke="#000000" stroke-width="2" stroke-opacity="1"><g><path d="M 105.5 10L 10 10"></path></g></g></g><g id="g-root-he_8xrcncq5pn2b-fill" data-item-order="-703889" transform="translate(481, 734)"></g><g id="g-root-he_8xrcncq5pn2b-stroke" data-item-order="-703889" transform="translate(481, 734)"><g id="he_8xrcncq5pn2b-stroke" fill="none" stroke-linecap="round" stroke-linejoin="round" stroke-miterlimit="4" stroke="#000000" stroke-width="2" stroke-opacity="1"><g><path d="M 10 10L 119 10"></path></g></g></g><g id="g-root-tx_promptst_7453cq5tts3-fill" data-item-order="0" transform="translate(60.296875, 488)"><g id="tx_promptst_7453cq5tts3-fill-merged" stroke="none" fill="#de8431" fill-opacity="1"><g><text style="font: bold 20px Roboto, sans-serif; white-space: pre;" transform="translate(227.703125, 22)" font-weight="bold" font-size="20px" font-family="Roboto, sans-serif"><tspan x="-215.7" y="12" dominant-baseline="ideographic">Prompt Standardisation</tspan></text></g></g></g><g id="g-root-tx_promptst_7453cq5tts3-stroke" data-item-order="0" transform="translate(60.296875, 488)"></g><g id="g-root-tx_unmanage_58pu0q5turs-fill" data-item-order="0" transform="translate(674, 452)"><g id="tx_unmanage_58pu0q5turs-fill-merged" stroke="none" fill="#000000" fill-opacity="1"><g><text style="font: 15px Roboto, sans-serif; white-space: pre;" transform="translate(10, 28)" font-size="15px" font-family="Roboto, sans-serif"><tspan x="2" y="0" dominant-baseline="ideographic">Unmanaged prompts decay over </tspan><tspan x="2" y="18" dominant-baseline="ideographic">time</tspan></text></g></g></g><g id="g-root-tx_unmanage_58pu0q5turs-stroke" data-item-order="0" transform="translate(674, 452)"></g><g id="g-root-ic_3_zqan60q5tudp-fill" data-item-order="0" transform="translate(302, 494)"></g><g id="g-root-ic_3_zqan60q5tudp-stroke" data-item-order="0" transform="translate(302, 494)"><g id="ic_3_zqan60q5tudp-stroke" fill="none" stroke-linecap="round" stroke-linejoin="round" stroke-miterlimit="4" stroke="#000000" stroke-width="2" stroke-opacity="1"><g><path d="M 45.237999 21.001999C 45.238003 22.589268 46.524734 23.875999 48.112003 23.875999C 49.699268 23.875999 50.986004 22.589268 50.986004 21.002001C 50.986004 19.414734 49.699268 18.128 48.112003 18.128C 46.524734 18.128 45.238003 19.414734 45.238003 21.002001ZM 50 12.4L 50.655998 14.552C 50.883629 15.289386 51.642101 15.72579 52.394001 15.552L 54.576 15.046C 55.425007 14.854486 56.299706 15.238667 56.733097 15.993427C 57.166489 16.748188 57.057369 17.697287 56.464001 18.334L 54.936001 20C 54.407558 20.568111 54.407558 21.447887 54.936001 22.016001L 56.462002 23.664C 57.053524 24.300951 57.161533 25.248787 56.728485 26.002495C 56.295437 26.756203 55.42218 27.140244 54.573997 26.949999L 52.400002 26.438C 51.648102 26.26421 50.889629 26.700613 50.661999 27.438L 50 29.6C 49.750107 30.433416 48.983074 31.004198 48.112999 31.004198C 47.242924 31.004198 46.475891 30.433416 46.225998 29.6L 45.57 27.448C 45.342369 26.710613 44.583897 26.27421 43.832001 26.448L 41.650002 26.954C 40.801819 27.144243 39.928562 26.760202 39.495514 26.006495C 39.062462 25.252787 39.170475 24.304951 39.762001 23.667999L 41.288002 22.02C 41.816444 21.451889 41.816444 20.572113 41.288002 20.004002L 39.762001 18.358C 39.168629 17.721287 39.059509 16.772188 39.492901 16.017427C 39.926292 15.262667 40.800991 14.878487 41.650002 15.07L 43.832001 15.576C 44.583897 15.74979 45.342369 15.313386 45.57 14.576L 46.223999 12.4C 46.472782 11.564904 47.240635 10.992455 48.112 10.992455C 48.983364 10.992455 49.751217 11.564904 50 12.4ZM 24.062 29.252001C 24.555244 29.803511 25.260098 30.11875 26 30.11875C 26.739901 30.11875 27.444756 29.803511 27.938 29.251999L 29.200001 27.864C 29.940538 27.043091 31.117697 26.777323 32.139099 27.200438C 33.160503 27.623552 33.804893 28.643892 33.748001 29.747999L 33.652 31.615999C 33.614887 32.353981 33.891838 33.073189 34.414326 33.59568C 34.936813 34.118164 35.656025 34.395119 36.394001 34.358002L 38.262001 34.262001C 39.366104 34.205105 40.386448 34.849495 40.809563 35.870895C 41.232674 36.892303 40.966908 38.069458 40.146 38.809998L 38.757999 40.063999C 38.20649 40.557243 37.891251 41.2621 37.891251 42.001999C 37.891251 42.741901 38.20649 43.446754 38.757999 43.939999L 40.146 45.194C 40.966908 45.93454 41.232674 47.111698 40.809563 48.133099C 40.386448 49.154503 39.366104 49.798893 38.262001 49.742001L 36.393997 49.646C 35.656025 49.608887 34.936813 49.885838 34.414326 50.408325C 33.891838 50.930813 33.614887 51.650024 33.652 52.388004L 33.748001 54.256001C 33.804893 55.360107 33.160503 56.380447 32.139099 56.803562C 31.117697 57.226677 29.940538 56.960907 29.199999 56.139999L 27.945999 54.751999C 27.452757 54.200489 26.7479 53.88525 26.007999 53.88525C 25.268099 53.88525 24.563244 54.200489 24.07 54.751999L 22.799999 56.139999C 22.05946 56.960907 20.882301 57.226677 19.860899 56.803562C 18.839497 56.380447 18.195105 55.360107 18.251999 54.256001L 18.348 52.388C 18.385117 51.650024 18.108166 50.930813 17.585678 50.408325C 17.063189 49.885838 16.343977 49.608887 15.606001 49.646004L 13.738 49.742001C 12.638251 49.792141 11.625125 49.147362 11.204857 48.129848C 10.784589 47.112331 11.047412 45.940544 11.862 45.200001L 13.25 43.945999C 13.801511 43.452755 14.11675 42.747902 14.11675 42.007999C 14.11675 41.268097 13.801511 40.563244 13.25 40.07L 11.862 38.816002C 11.041091 38.075462 10.775323 36.8983 11.198438 35.8769C 11.621552 34.855495 12.641892 34.211105 13.746 34.267998L 15.614 34.363998C 16.351978 34.401115 17.07119 34.124168 17.593678 33.601677C 18.116165 33.079193 18.393116 32.359978 18.356001 31.622002L 18.26 29.747999C 18.207249 28.647717 18.850439 27.632605 19.867859 27.210398C 20.885281 26.788191 22.05822 27.04965 22.799999 27.864ZM 19 42.001999C 19 45.867996 22.134007 49.002003 26 49.002003C 29.865993 49.002003 33 45.867996 33 42.002003C 33 38.136009 29.865993 35.001999 26 35.001999C 22.134007 35.001999 19 38.136009 19 42.002003Z"></path></g></g></g><g id="g-root-tx_promptli_qrj9hkq5turq-fill" data-item-order="0" transform="translate(674, 416)"><g id="tx_promptli_qrj9hkq5turq-fill-merged" stroke="none" fill="#969696" fill-opacity="1"><g><text style="font: bold 20px Roboto, sans-serif; white-space: pre;" transform="translate(10, 22)" font-weight="bold" font-size="20px" font-family="Roboto, sans-serif"><tspan x="2" y="12" dominant-baseline="ideographic">Prompt Lifecycle</tspan></text></g></g></g><g id="g-root-tx_promptli_qrj9hkq5turq-stroke" data-item-order="0" transform="translate(674, 416)"></g><g id="g-root-tx_inconsis_1d1r5jcq5tsss-fill" data-item-order="0" transform="translate(42.21875, 524)"><g id="tx_inconsis_1d1r5jcq5tsss-fill-merged" stroke="none" fill="#000000" fill-opacity="1"><g><text style="font: 15px Roboto, sans-serif; white-space: pre;" transform="translate(245.78125, 28)" font-size="15px" font-family="Roboto, sans-serif"><tspan x="-233.78" y="0" dominant-baseline="ideographic">Inconsistent prompt usage hinders </tspan><tspan x="-68.94" y="18" dominant-baseline="ideographic">scalability</tspan></text></g></g></g><g id="g-root-tx_inconsis_1d1r5jcq5tsss-stroke" data-item-order="0" transform="translate(42.21875, 524)"></g><g id="g-root-ic_3_1hfp8egq5tts2-fill" data-item-order="0" transform="translate(602, 422)"></g><g id="g-root-ic_3_1hfp8egq5tts2-stroke" data-item-order="0" transform="translate(602, 422)"><g id="ic_3_1hfp8egq5tts2-stroke" fill="none" stroke-linecap="round" stroke-linejoin="round" stroke-miterlimit="4" stroke="#000000" stroke-width="2" stroke-opacity="1"><g><path d="M 10 10M 24.4 35.714001L 26.716 39.186001L 23.716 54.304001C 23.5958 54.892853 23.746777 55.504543 24.127159 55.969845C 24.507542 56.435146 25.077003 56.704723 25.678001 56.703999L 42.827999 56.703999C 43.404327 56.704357 43.952793 56.456078 44.332825 56.022797C 44.712852 55.58952 44.887501 55.013359 44.812 54.442001L 42.799999 39.186001L 42.799999 35.714001ZM 42.958 40.365997C 43.83765 39.961594 44.790184 39.739792 45.757999 39.713997C 49.207527 39.856941 51.891033 42.764076 51.757999 46.214001C 51.889919 49.663513 49.207027 52.569977 45.757999 52.714001C 45.362072 52.696796 44.968151 52.647972 44.580002 52.568001M 33.610001 20.214001L 34.75 48.214001M 33.849998 26.219999L 28.75 21.714001M 38.886002 22.306L 33.870003 26.714001M 34.056 31.379999L 22.75 27.714001M 34.026001 30.615999L 45.585999 27.274M 49.75 28.945999C 49.75 29.498285 50.197716 29.945999 50.75 29.945999C 51.302284 29.945999 51.75 29.498285 51.75 28.945999C 51.75 28.393715 51.302284 27.945999 50.75 27.945999C 50.197716 27.945999 49.75 28.393715 49.75 28.945999M 29.299999 16.214001C 29.299999 16.766285 29.747715 17.214001 30.299999 17.214001C 30.852285 17.214001 31.299999 16.766285 31.299999 16.214001C 31.299999 15.661715 30.852285 15.214001 30.299999 15.214001C 29.747715 15.214001 29.299999 15.661715 29.299999 16.214001M 37.806 17.214001C 37.806 17.766285 38.253716 18.214001 38.806 18.214001C 39.358284 18.214001 39.806 17.766285 39.806 17.214001C 39.806 16.661715 39.358284 16.214001 38.806 16.214001C 38.253716 16.214001 37.806 16.661715 37.806 17.214001M 44.835999 16.198C 44.835999 16.750284 45.283714 17.198 45.835999 17.198C 46.388287 17.198 46.835999 16.750284 46.835999 16.198C 46.835999 15.645716 46.388287 15.198 45.835999 15.198C 45.283714 15.198 44.835999 15.645716 44.835999 16.198M 49.316002 21.714001C 49.316002 22.266285 49.763714 22.714001 50.316002 22.714001C 50.868286 22.714001 51.316002 22.266285 51.316002 21.714001C 51.316002 21.161716 50.868286 20.714001 50.316002 20.714001C 49.763714 20.714001 49.316002 21.161716 49.316002 21.714001M 41.958 23.51C 41.958 24.062284 42.405716 24.51 42.958 24.51C 43.510284 24.51 43.958 24.062284 43.958 23.51C 43.958 22.957714 43.510284 22.51 42.958 22.51C 42.405716 22.51 41.958 22.957714 41.958 23.51M 34.767998 12.306C 34.767998 12.858285 35.215714 13.306 35.767998 13.306C 36.320282 13.306 36.767998 12.858285 36.767998 12.306C 36.767998 11.753716 36.320282 11.306 35.767998 11.306C 35.215714 11.306 34.767998 11.753716 34.767998 12.306M 16.25 27.040001C 16.25 27.592285 16.697716 28.040001 17.25 28.040001C 17.802284 28.040001 18.25 27.592285 18.25 27.040001C 18.25 26.487715 17.802284 26.040001 17.25 26.040001C 16.697716 26.040001 16.25 26.487715 16.25 27.040001M 17.25 20.714001C 17.25 21.266285 17.697716 21.714001 18.25 21.714001C 18.802284 21.714001 19.25 21.266285 19.25 20.714001C 19.25 20.161716 18.802284 19.714001 18.25 19.714001C 17.697716 19.714001 17.25 20.161716 17.25 20.714001M 24.25 23.966C 24.25 24.518284 24.697716 24.966 25.25 24.966C 25.802284 24.966 26.25 24.518284 26.25 23.966C 26.25 23.413715 25.802284 22.966 25.25 22.966C 24.697716 22.966 24.25 23.413715 24.25 23.966M 22.138 16.214001C 22.138 16.766285 22.585716 17.214001 23.138 17.214001C 23.690285 17.214001 24.138 16.766285 24.138 16.214001C 24.138 15.661715 23.690285 15.214001 23.138 15.214001C 22.585716 15.214001 22.138 15.661715 22.138 16.214001"></path></g></g></g><g id="g-root-ic_ques_24cegq5v7rf-fill" data-item-order="0" transform="translate(602, 566)"></g><g id="g-root-ic_ques_24cegq5v7rf-stroke" data-item-order="0" transform="translate(602, 566)"><g id="ic_ques_24cegq5v7rf-stroke" fill="none" stroke-linecap="round" stroke-linejoin="round" stroke-miterlimit="4" stroke="#000000" stroke-width="2" stroke-opacity="1"><g><path d="M 17 25L 51 25C 51 25 57 25 57 31L 57 51C 57 51 57 57 51 57L 17 57C 17 57 11 57 11 51L 11 31C 11 31 11 25 17 25M 27 25L 27 21C 27 18.790861 28.790861 17 31 17L 37 17C 39.209137 17 41 18.790861 41 21L 41 25M 49 25L 49 57M 19 25L 19 57M 24 41C 24 46.522846 28.477154 51 34 51C 39.52285 51 44 46.522846 44 41C 44 35.477154 39.52285 31 34 31C 28.477154 31 24 35.477154 24 41M 34 45.5C 34.276142 45.5 34.5 45.723858 34.5 46C 34.5 46.276142 34.276142 46.5 34 46.5C 33.723858 46.5 33.5 46.276142 33.5 46C 33.5 45.723858 33.723858 45.5 34 45.5M 31 39C 31 37.343147 32.343147 36 34 36C 35.656853 36 37 37.343147 37 39C 37 40.656853 35.656853 42 34 42M 48.18 14.2L 48 18L 51.34 19.66C 51.632889 19.820078 51.987114 19.820078 52.279999 19.66L 55.900002 17.66C 56.444466 17.350243 56.842007 16.835117 57.003643 16.229918C 57.165283 15.624718 57.077518 14.979977 56.759998 14.440001L 55.599998 12.440001C 55.333908 11.832801 54.824696 11.36552 54.196922 11.152457C 53.569149 10.939395 52.880711 11.0002 52.299999 11.32L 48.68 13.32C 48.359676 13.494516 48.165939 13.835496 48.179996 14.2ZM 47.919998 17.9L 41 21.9"></path></g></g></g><g id="g-root-tx_lackofac_qqabbcq5pmvc-fill" data-item-order="0" transform="translate(52.984375, 380)"><g id="tx_lackofac_qqabbcq5pmvc-fill-merged" stroke="none" fill="#000000" fill-opacity="1"><g><text style="font: 15px Roboto, sans-serif; white-space: pre;" transform="translate(235.015625, 28)" font-size="15px" font-family="Roboto, sans-serif"><tspan x="-223.02" y="0" dominant-baseline="ideographic">Lack of accountability for prompt </tspan><tspan x="-46.27" y="18" dominant-baseline="ideographic">quality</tspan></text></g></g></g><g id="g-root-tx_lackofac_qqabbcq5pmvc-stroke" data-item-order="0" transform="translate(52.984375, 380)"></g><g id="g-root-tx_promptec_qoew20q5v7rd-fill" data-item-order="0" transform="translate(674, 560)"><g id="tx_promptec_qoew20q5v7rd-fill-merged" stroke="none" fill="#3cc583" fill-opacity="1"><g><text style="font: bold 20px Roboto, sans-serif; white-space: pre;" transform="translate(10, 22)" font-weight="bold" font-size="20px" font-family="Roboto, sans-serif"><tspan x="2" y="12" dominant-baseline="ideographic">Prompt Economics</tspan></text></g></g></g><g id="g-root-tx_promptec_qoew20q5v7rd-stroke" data-item-order="0" transform="translate(674, 560)"></g><g id="g-root-ic_key_dfga14q5plah-fill" data-item-order="0" transform="translate(302, 350)"></g><g id="g-root-ic_key_dfga14q5plah-stroke" data-item-order="0" transform="translate(302, 350)"><g id="ic_key_dfga14q5plah-stroke" fill="none" stroke-linecap="round" stroke-linejoin="round" stroke-miterlimit="4" stroke="#000000" stroke-width="2" stroke-opacity="1"><g><path d="M 42.810001 50.462002C 41.833622 51.438122 40.250832 51.437984 39.27462 50.461689C 38.298416 49.485397 38.298416 47.902603 39.27462 46.926311C 40.250832 45.95002 41.833622 45.949879 42.810001 46.925999C 43.785519 47.902821 43.785519 49.48518 42.810001 50.462002ZM 10 10M 48.096001 45.883999L 56.706001 37.293999C 56.894161 37.106426 56.999943 36.851685 57 36.585999L 57 34C 57 33.447716 56.552284 33 56 33L 53.400002 33C 53.144054 32.999924 52.89782 33.097984 52.712002 33.274002L 43.854 41.641998C 40.328316 40.148323 36.238579 41.362339 34.098885 44.53775C 31.959192 47.713158 32.369568 51.959496 35.077744 54.666393C 37.785919 57.373291 42.032452 57.78167 45.206848 55.64048C 48.381248 53.49929 49.593338 49.408978 48.098 45.883999ZM 35.200001 28.200001C 34.081882 26.363829 33.525681 24.240532 33.599998 22.091999L 33.599998 19.6C 33.600002 14.850351 29.749651 11 25 11C 20.250351 11 16.400002 14.850351 16.400002 19.6L 16.4 22.09C 16.473656 24.239088 15.917518 26.362839 14.799999 28.199999M 16.4 21.012001C 19.702629 21.009048 22.841015 19.571228 25 17.072001C 27.158823 19.571445 30.297314 21.009312 33.599998 21.012001M 32.576 20.966C 32.389912 25.013756 29.054031 28.199797 25.001999 28.199797C 20.949968 28.199797 17.61409 25.013756 17.427999 20.966M 27 45L 11 45C 10.999902 39.114559 14.680733 33.857452 20.211155 31.844276C 25.741575 29.831099 31.940599 31.491751 35.723999 36"></path></g></g></g><g id="g-root-tx_failuret_dcydooq5v9ca-fill" data-item-order="0" transform="translate(674, 596)"><g id="tx_failuret_dcydooq5v9ca-fill-merged" stroke="none" fill="#000000" fill-opacity="1"><g><text style="font: 15px Roboto, sans-serif; white-space: pre;" transform="translate(10, 28)" font-size="15px" font-family="Roboto, sans-serif"><tspan x="2" y="0" dominant-baseline="ideographic">Failure to link prompts to business </tspan><tspan x="2" y="18" dominant-baseline="ideographic">value</tspan></text></g></g></g><g id="g-root-tx_failuret_dcydooq5v9ca-stroke" data-item-order="0" transform="translate(674, 596)"></g><g id="g-root-tx_promptow_141qtooq5plaf-fill" data-item-order="0" transform="translate(106.640625, 344)"><g id="tx_promptow_141qtooq5plaf-fill-merged" stroke="none" fill="#4e88e7" fill-opacity="1"><g><text style="font: bold 20px Roboto, sans-serif; white-space: pre;" transform="translate(181.359375, 22)" font-weight="bold" font-size="20px" font-family="Roboto, sans-serif"><tspan x="-169.36" y="12" dominant-baseline="ideographic">Prompt Ownership</tspan></text></g></g></g><g id="g-root-tx_promptow_141qtooq5plaf-stroke" data-item-order="0" transform="translate(106.640625, 344)"></g><g id="g-root-tx_visiblea_1hckuywq5pmva-fill" data-item-order="0" transform="translate(367.78125, 140)"><g id="tx_visiblea_1hckuywq5pmva-fill-merged" stroke="none" fill="#000000" fill-opacity="1"><g><text style="font: 15px Roboto, sans-serif; white-space: pre;" transform="translate(118.21875, 28)" font-size="15px" font-family="Roboto, sans-serif"><tspan x="-106.22" y="0" dominant-baseline="ideographic">Visible accumulation of prompt </tspan><tspan x="-23.42" y="18" dominant-baseline="ideographic">issues</tspan></text></g></g></g><g id="g-root-tx_visiblea_1hckuywq5pmva-stroke" data-item-order="0" transform="translate(367.78125, 140)"></g><g id="g-root-tx_promptgo_24cegq5wl58-fill" data-item-order="0" transform="translate(95.234375, 632)"><g id="tx_promptgo_24cegq5wl58-fill-merged" stroke="none" fill="#969696" fill-opacity="1"><g><text style="font: bold 20px Roboto, sans-serif; white-space: pre;" transform="translate(192.765625, 22)" font-weight="bold" font-size="20px" font-family="Roboto, sans-serif"><tspan x="-180.77" y="12" dominant-baseline="ideographic">Prompt Governance</tspan></text></g></g></g><g id="g-root-tx_promptgo_24cegq5wl58-stroke" data-item-order="0" transform="translate(95.234375, 632)"></g><g id="g-root-ic_uneq_1hbydvsq5wnba-fill" data-item-order="0" transform="translate(302, 638)"></g><g id="g-root-ic_uneq_1hbydvsq5wnba-stroke" data-item-order="0" transform="translate(302, 638)"><g id="ic_uneq_1hbydvsq5wnba-stroke" fill="none" stroke-linecap="round" stroke-linejoin="round" stroke-miterlimit="4" stroke="#000000" stroke-width="2" stroke-opacity="1"><g><path d="M 34 23.364L 34 54.363998M 29 54.363998L 39 54.363998M 12 42.363998L 19 27.436001L 26 42.363998M 31 20.364C 31 22.020855 32.343147 23.364 34 23.364C 35.656853 23.364 37 22.020855 37 20.364C 37 18.707146 35.656853 17.364 34 17.364C 32.343147 17.364 31 18.707146 31 20.364ZM 19 49.363998C 20.870407 49.410587 22.678082 48.688061 24.001072 47.36507C 25.32406 46.042084 26.046587 44.234409 26 42.363998L 12 42.363998C 11.953412 44.234409 12.67594 46.042084 13.998928 47.36507C 15.321917 48.688061 17.129591 49.410587 19 49.363998ZM 56 30.364L 49 15.298L 42 30.364M 49 37.363998C 47.129589 37.410587 45.321915 36.688061 43.998928 35.36507C 42.675938 34.042084 41.953411 32.234406 42 30.363998L 56 30.364C 56.046585 32.234406 55.324059 34.042084 54.001072 35.36507C 52.678082 36.688061 50.870407 37.410587 49 37.363998ZM 36.987999 20.156L 53.110001 13.636M 14.892 29.094L 31.73 22.282"></path></g></g></g><g id="g-root-tx_continuo_1hbydvsq5y0p4-fill" data-item-order="0" transform="translate(674, 740)"><g id="tx_continuo_1hbydvsq5y0p4-fill-merged" stroke="none" fill="#000000" fill-opacity="1"><g><text style="font: 15px Roboto, sans-serif; white-space: pre;" transform="translate(10, 28)" font-size="15px" font-family="Roboto, sans-serif"><tspan x="2" y="0" dominant-baseline="ideographic">Continuous tracking is essential for </tspan><tspan x="2" y="18" dominant-baseline="ideographic">control</tspan></text></g></g></g><g id="g-root-tx_continuo_1hbydvsq5y0p4-stroke" data-item-order="0" transform="translate(674, 740)"></g><g id="g-root-tx_absenceo_1lrrw08q5wmj1-fill" data-item-order="0" transform="translate(76.4375, 668)"><g id="tx_absenceo_1lrrw08q5wmj1-fill-merged" stroke="none" fill="#000000" fill-opacity="1"><g><text style="font: 15px Roboto, sans-serif; white-space: pre;" transform="translate(211.5625, 28)" font-size="15px" font-family="Roboto, sans-serif"><tspan x="-199.56" y="0" dominant-baseline="ideographic">Absence of oversight leads to </tspan><tspan x="-51.03" y="18" dominant-baseline="ideographic">neglect</tspan></text></g></g></g><g id="g-root-tx_absenceo_1lrrw08q5wmj1-stroke" data-item-order="0" transform="translate(76.4375, 668)"></g><g id="g-root-tx_promptde_1lsed3cq5pm31-fill" data-item-order="0" transform="translate(417.328125, 104)"><g id="tx_promptde_1lsed3cq5pm31-fill-merged" stroke="none" fill="#000000" fill-opacity="1"><g><text style="font: bold 20px Roboto, sans-serif; white-space: pre;" transform="translate(68.671875, 22)" font-weight="bold" font-size="20px" font-family="Roboto, sans-serif"><tspan x="-56.67" y="12" dominant-baseline="ideographic">Prompt Debt</tspan></text></g></g></g><g id="g-root-tx_promptde_1lsed3cq5pm31-stroke" data-item-order="0" transform="translate(417.328125, 104)"></g><g id="g-root-ic_fore_zlauh4q5xzwh-fill" data-item-order="0" transform="translate(602, 710)"></g><g id="g-root-ic_fore_zlauh4q5xzwh-stroke" data-item-order="0" transform="translate(602, 710)"><g id="ic_fore_zlauh4q5xzwh-stroke" fill="none" stroke-linecap="round" stroke-linejoin="round" stroke-miterlimit="4" stroke="#000000" stroke-width="2" stroke-opacity="1"><g><path d="M 11 12.034L 11 55.966L 57 55.966M 51.762001 33.478001C 47.86594 39.362556 41.314705 42.942833 34.258003 43.044003C 27.201662 42.941444 20.651031 39.3615 16.754 33.478001C 16.465897 33.005089 16.465897 32.410912 16.754 31.938002C 20.649847 26.052944 27.20101 22.471962 34.257999 22.369999C 41.315353 22.47057 47.867126 26.051886 51.762001 31.938C 52.051937 32.410393 52.051937 33.005608 51.762001 33.477997ZM 27.908001 32.708C 27.907698 36.215221 30.750778 39.058548 34.257999 39.058548C 37.765221 39.058548 40.608303 36.215221 40.608002 32.708C 40.608303 29.200777 37.765221 26.357452 34.257999 26.357452C 30.750778 26.357452 27.907698 29.200777 27.907999 32.708M 11.516 55.450001L 22.024 44.942001M 45.456001 12.034L 54.931999 12.034L 54.931999 21.51M 47.172001 19.793999L 54.931999 12.034"></path></g></g></g><g id="g-root-tx_promptde_8xrcncq5pn2c-fill" data-item-order="0" transform="translate(222.3828125, 38)"><g id="tx_promptde_8xrcncq5pn2c-fill-merged" stroke="none" fill="#000000" fill-opacity="1"><g><text style="font: bold 25px Roboto, sans-serif; white-space: pre;" transform="translate(263.6171875, 25)" font-weight="bold" font-size="25px" font-family="Roboto, sans-serif"><tspan x="-251.62" y="15" dominant-baseline="ideographic">Prompt Debt: The Hidden Cost of AI Prompts</tspan></text></g></g></g><g id="g-root-tx_promptde_8xrcncq5pn2c-stroke" data-item-order="0" transform="translate(222.3828125, 38)"></g><g id="g-root-tx_promptmo_1hvbcq5y1ov-fill" data-item-order="0" transform="translate(674, 704)"><g id="tx_promptmo_1hvbcq5y1ov-fill-merged" stroke="none" fill="#e0cb15" fill-opacity="1"><g><text style="font: bold 20px Roboto, sans-serif; white-space: pre;" transform="translate(10, 22)" font-weight="bold" font-size="20px" font-family="Roboto, sans-serif"><tspan x="2" y="12" dominant-baseline="ideographic">Prompt Monitoring</tspan></text></g></g></g><g id="g-root-tx_promptmo_1hvbcq5y1ov-stroke" data-item-order="0" transform="translate(674, 704)"></g></g></g><path id="w4pf6te168s6q6" d="M65.283 12.757a.35.35 0 0 0 .584.157l5.203-5.141-6.183 3.523.396 1.461zm-2.216-11.7a.35.35 0 0 0-.522.305v3.111l3.276-1.868-2.754-1.548zm3.728 2.105l-4.25 2.421v2.445l6.391-3.644-2.141-1.222zm4.708 3.303a.35.35 0 0 0 0-.609l-1.592-.9-7.365 4.199v1.782a.35.35 0 0 0 .523.305l8.435-4.777z M44.542 2.513c0-.433.355-.783.792-.783s.792.35.792.783-.355.783-.792.783-.792-.35-.792-.783zm59.171 0c0-.433.355-.783.792-.783s.792.35.792.783-.355.783-.792.783-.792-.35-.792-.783zm-85.951 7.636h-1.27v-.487c-.276.201-.864.609-1.881.609-1.202 0-2.274-.794-2.137-2.078.118-1.106 1.153-1.584 1.848-1.727l2.17-.345c0-.539-.29-.956-1.064-1.006s-1.21.305-1.571 1.017l-1.124-.605c1.218-2.631 5.029-1.764 5.029.414v4.207zm-1.27-2.86c.006.396-.062 1.112-.819 1.59-.587.37-1.841.299-1.903-.395-.049-.555.461-.791.906-.898l1.816-.297zm72.662 2.86h-1.27v-.487c-.276.201-.864.609-1.881.609-1.202 0-2.274-.794-2.137-2.078.118-1.106 1.153-1.584 1.848-1.727l2.17-.345c0-.539-.29-.956-1.064-1.006s-1.21.305-1.571 1.017l-1.124-.605c1.218-2.631 5.029-1.764 5.029.414v4.207zm-1.27-2.86c.006.396-.062 1.112-.82 1.59-.587.37-1.841.299-1.903-.395-.049-.555.461-.791.906-.898l1.816-.297zM99.096 10.149H97.85v-8.45h1.246v4.895l2.68-2.559h1.738l-2.633 2.535 2.715 3.578h-1.556l-2.077-2.707-.867.844v1.863zm6.053-6.114h-1.255v6.113h1.255V4.035zm-59.2 0h-1.255v6.113h1.255V4.035zm5.584 6.113V1.697h1.255v2.695c.361-.346 1-.485 1.47-.485 1.452 0 2.477 1.082 2.457 2.448v3.792h-1.27v-3.68c0-.408-.214-1.339-1.315-1.339-.968 0-1.342.756-1.342 1.339v3.681h-1.255zm-4.76-4.894V4.039h.621a.45.45 0 0 0 .45-.45v-.855h1.251v1.305h1.309v1.215h-1.309v3.109c0 .293.105.664.648.664.365 0 .531-.035.736-.07v1.137s-.361.113-.857.113c-1.398 0-1.777-1.051-1.777-1.788V5.254h-1.071zM36.528 4.039h-1.394l2.191 6.106h1.125l1.234-3.918 1.238 3.918h1.129l2.188-6.106h-1.383l-1.359 3.93-1.256-3.93h-1.124l-1.242 3.957-1.348-3.957zM26.212 7.141c-.02 1.566 1.187 3.129 3.223 3.129 1.566 0 2.383-.918 2.734-1.719L31.172 8c-.315.399-.801 1.094-1.738 1.094-1.145 0-1.825-.781-1.891-1.52h4.625c.074-.284.148-.995-.03-1.559-.336-1.064-1.221-2.102-2.839-2.102s-3.088 1.152-3.088 3.227zm1.363-.75h3.348c-.055-.43-.566-1.301-1.623-1.301a1.79 1.79 0 0 0-1.725 1.301zm-8.758.75c.038 1.758 1.277 3.133 3.145 3.133 1.074 0 1.723-.477 1.961-.672v.547h1.242V1.703h-1.258v2.888c-.414-.36-1.062-.68-1.93-.68-1.91 0-3.198 1.473-3.16 3.23zm1.309-.08c0 1.119.723 1.978 1.836 1.978a1.88 1.88 0 0 0 1.94-1.904c0-1.371-1.011-1.99-1.972-1.99s-1.805.798-1.805 1.916zm76.683-.028C96.771 5.275 95.532 3.9 93.664 3.9c-1.074 0-1.723.477-1.961.672v-.547h-1.242v8.22h1.258V9.583c.414.36 1.063.68 1.93.68 1.91 0 3.198-1.473 3.16-3.23zm-1.309.08c0-1.119-.723-1.978-1.836-1.978a1.88 1.88 0 0 0-1.94 1.904c0 1.371 1.011 1.99 1.972 1.99S95.5 8.231 95.5 7.113zM106.441 10.173V4.036h1.254v.382c.361-.346 1-.485 1.47-.485 1.452 0 2.477 1.082 2.457 2.448v3.792h-1.27V6.492c0-.408-.214-1.339-1.315-1.339-.969 0-1.342.756-1.342 1.339v3.681h-1.254zm-30.383-.021V1.824h1.084l4.215 5.777V1.824h1.32v8.328h-1.094l-4.207-5.796v5.796h-1.319zM5.24 10.149H4V2.377h1.014l2.664 3.597 2.654-3.592h1.03v7.766h-1.256V4.762L7.678 8.068 5.24 4.742v5.407z" transform="translate(20, 824)" fill="#80808088" stroke="none"></path></svg>